<?xml version="1.0" encoding="UTF-8"?>
<svg width="79px" height="79px" viewBox="0 0 79 79" version="1.1" xmlns="http://www.w3.org/2000/svg" xmlns:xlink="http://www.w3.org/1999/xlink">
    <!-- Generator: Sketch 44.1 (41455) - http://www.bohemiancoding.com/sketch -->
    <title>Combined Shape</title>
    <desc>Created with Sketch.</desc>
    <defs></defs>
    <g id="Page-1" stroke="none" stroke-width="1" fill="none" fill-rule="evenodd" fill-opacity="0.8">
        <g id="About-Us-Meet-the-Team" transform="translate(-1146.000000, -52.000000)" fill="#FFFFFF">
            <g id="X-Button" transform="translate(1185.500000, 91.500000) rotate(-180.000000) translate(-1185.500000, -91.500000) translate(1146.000000, 52.000000)">
                <path d="M37.4006256,39.2996604 L29.9575766,46.7427093 C29.5747193,47.1255666 29.5686387,47.7648122 29.959163,48.1553365 C30.35241,48.5485834 30.982142,48.546571 31.3717902,48.1569229 L38.8148391,40.7138739 L46.2615496,48.1605844 C46.6444069,48.5434417 47.2836525,48.5495223 47.6741768,48.158998 C48.0674237,47.7657511 48.0654113,47.136019 47.6757632,46.7463709 L40.2290527,39.2996604 L47.6792531,31.84946 C48.0621104,31.4666027 48.0681909,30.8273571 47.6776667,30.4368328 C47.2844197,30.0435859 46.6546877,30.0455983 46.2650395,30.4352464 L38.8148391,37.8854468 L31.3683003,30.438908 C30.985443,30.0560507 30.3461975,30.0499701 29.9556732,30.4404944 C29.5624262,30.8337413 29.5644386,31.4634734 29.9540867,31.8531215 L37.4006256,39.2996604 Z M39.5,79 C17.6847524,79 0,61.3152476 0,39.5 C0,17.6847524 17.6847524,-2.84217094e-14 39.5,-2.84217094e-14 C61.3152476,-2.84217094e-14 79,17.6847524 79,39.5 C79,61.3152476 61.3152476,79 39.5,79 Z" id="Combined-Shape"></path>
            </g>
        </g>
    </g>
</svg>