<?xml version="1.0" encoding="UTF-8"?>
<svg width="43px" height="42px" viewBox="0 0 43 42" version="1.1" xmlns="http://www.w3.org/2000/svg" xmlns:xlink="http://www.w3.org/1999/xlink">
    <!-- Generator: Sketch 44.1 (41455) - http://www.bohemiancoding.com/sketch -->
    <title>Icon</title>
    <desc>Created with Sketch.</desc>
    <defs>
        <polygon id="path-1" points="0.178290729 0.0418220339 16.0855867 0.0418220339 16.0855867 19.1610407 0.178290729 19.1610407 0.178290729 0.0418220339"></polygon>
    </defs>
    <g id="Page-1" stroke="none" stroke-width="1" fill="none" fill-rule="evenodd">
        <g id="About-Us---Meet-the-Team" transform="translate(-133.000000, -18.000000)">
            <g id="Header" transform="translate(133.000000, 18.000000)">
                <g id="Logo">
                    <g id="Icon">
                        <path d="M7.95361214,13.1686017 C3.5610303,13.1686017 5.3755999e-05,16.705322 5.3755999e-05,21.0679831 C5.3755999e-05,25.430822 3.5610303,28.9675424 7.95361214,28.9675424 C10.1499031,28.9675424 12.1718454,28.0042119 13.6418927,26.6059322 C15.2321744,25.0932203 19.2504353,21.0679831 19.2504353,21.0679831 C19.2504353,21.0679831 15.1949035,16.9957627 13.6418927,15.497822 C12.2709356,14.1755339 10.0153339,13.1686017 7.95361214,13.1686017" id="Fill-1" fill="#00DD78"></path>
                        <path d="M34.1132342,28.9674534 C38.5058161,28.9674534 42.0667926,25.4307331 42.0667926,21.068072 C42.0667926,16.7052331 38.5058161,13.1685127 34.1132342,13.1685127 C31.9169433,13.1685127 29.895001,14.1318432 28.4249536,15.5301229 C26.834672,17.0428347 22.8164111,21.068072 22.8164111,21.068072 C22.8164111,21.068072 26.8719428,25.1402924 28.4249536,26.6382331 C29.7959108,27.9605212 32.0515125,28.9674534 34.1132342,28.9674534" id="Fill-3" fill="#1DCCE9"></path>
                        <path d="M13.07982,34.0587432 C13.07982,38.4214042 16.6407966,41.9581246 21.0333784,41.9581246 C25.4261394,41.9581246 28.987116,38.4214042 28.987116,34.0587432 C28.987116,31.8774127 28.0171786,29.8692432 26.609309,28.4092093 C25.0862223,26.8297602 21.0333784,22.8388703 21.0333784,22.8388703 C21.0333784,22.8388703 16.9332292,26.8667771 15.425015,28.4092093 C14.0936581,29.770828 13.07982,32.0110653 13.07982,34.0587432" id="Fill-5" fill="#2355F0"></path>
                        <g id="Group-9" transform="translate(12.901440, 0.136144)">
                            <mask id="mask-2" fill="white">
                                <use xlink:href="#path-1"></use>
                            </mask>
                            <g id="Clip-8"></g>
                            <path d="M16.0855867,7.9411678 C16.0855867,3.57850678 12.5246101,0.0417864407 8.1320283,0.0417864407 C3.73926727,0.0417864407 0.178290729,3.57850678 0.178290729,7.9411678 C0.178290729,10.1224983 1.14822813,12.1306678 2.55609774,13.5907017 C4.07918437,15.1701508 8.1320283,19.1610407 8.1320283,19.1610407 C8.1320283,19.1610407 12.2321775,15.1331339 13.7403916,13.5907017 C15.0717485,12.2290831 16.0855867,9.98884576 16.0855867,7.9411678" id="Fill-7" fill="#FC5039" mask="url(#mask-2)"></path>
                        </g>
                    </g>
                </g>
            </g>
        </g>
    </g>
</svg>