<?xml version="1.0" encoding="UTF-8"?>
<svg width="135px" height="42px" viewBox="0 0 135 42" version="1.1" xmlns="http://www.w3.org/2000/svg" xmlns:xlink="http://www.w3.org/1999/xlink">
    <!-- Generator: Sketch 44.1 (41455) - http://www.bohemiancoding.com/sketch -->
    <title>Logo</title>
    <desc>Created with Sketch.</desc>
    <defs>
        <polygon id="path-1" points="0.178290729 0.0418220339 16.0855867 0.0418220339 16.0855867 19.1610407 0.178290729 19.1610407 0.178290729 0.0418220339"></polygon>
    </defs>
    <g id="Page-1" stroke="none" stroke-width="1" fill="none" fill-rule="evenodd">
        <g id="About-Us---Meet-the-Team" transform="translate(-133.000000, -18.000000)">
            <g id="Header" transform="translate(133.000000, 18.000000)">
                <g id="Logo">
                    <g id="Icon">
                        <path d="M7.95361214,13.1686017 C3.5610303,13.1686017 5.3755999e-05,16.705322 5.3755999e-05,21.0679831 C5.3755999e-05,25.430822 3.5610303,28.9675424 7.95361214,28.9675424 C10.1499031,28.9675424 12.1718454,28.0042119 13.6418927,26.6059322 C15.2321744,25.0932203 19.2504353,21.0679831 19.2504353,21.0679831 C19.2504353,21.0679831 15.1949035,16.9957627 13.6418927,15.497822 C12.2709356,14.1755339 10.0153339,13.1686017 7.95361214,13.1686017" id="Fill-1" fill="#00DD78"></path>
                        <path d="M34.1132342,28.9674534 C38.5058161,28.9674534 42.0667926,25.4307331 42.0667926,21.068072 C42.0667926,16.7052331 38.5058161,13.1685127 34.1132342,13.1685127 C31.9169433,13.1685127 29.895001,14.1318432 28.4249536,15.5301229 C26.834672,17.0428347 22.8164111,21.068072 22.8164111,21.068072 C22.8164111,21.068072 26.8719428,25.1402924 28.4249536,26.6382331 C29.7959108,27.9605212 32.0515125,28.9674534 34.1132342,28.9674534" id="Fill-3" fill="#1DCCE9"></path>
                        <path d="M13.07982,34.0587432 C13.07982,38.4214042 16.6407966,41.9581246 21.0333784,41.9581246 C25.4261394,41.9581246 28.987116,38.4214042 28.987116,34.0587432 C28.987116,31.8774127 28.0171786,29.8692432 26.609309,28.4092093 C25.0862223,26.8297602 21.0333784,22.8388703 21.0333784,22.8388703 C21.0333784,22.8388703 16.9332292,26.8667771 15.425015,28.4092093 C14.0936581,29.770828 13.07982,32.0110653 13.07982,34.0587432" id="Fill-5" fill="#2355F0"></path>
                        <g id="Group-9" transform="translate(12.901440, 0.136144)">
                            <mask id="mask-2" fill="white">
                                <use xlink:href="#path-1"></use>
                            </mask>
                            <g id="Clip-8"></g>
                            <path d="M16.0855867,7.9411678 C16.0855867,3.57850678 12.5246101,0.0417864407 8.1320283,0.0417864407 C3.73926727,0.0417864407 0.178290729,3.57850678 0.178290729,7.9411678 C0.178290729,10.1224983 1.14822813,12.1306678 2.55609774,13.5907017 C4.07918437,15.1701508 8.1320283,19.1610407 8.1320283,19.1610407 C8.1320283,19.1610407 12.2321775,15.1331339 13.7403916,13.5907017 C15.0717485,12.2290831 16.0855867,9.98884576 16.0855867,7.9411678" id="Fill-7" fill="#FC5039" mask="url(#mask-2)"></path>
                        </g>
                    </g>
                    <g id="Text" transform="translate(46.534730, 2.297161)" fill="#020251">
                        <path d="M81.3929174,31.4826559 C81.5420007,32.3909949 82.3712765,32.7287746 83.2858453,32.7287746 C84.1787324,32.7287746 84.667912,32.348639 84.667912,31.8843254 C84.667912,31.5250119 84.391427,31.2504102 83.6049767,31.1025203 L81.4355638,30.6798508 C79.4580598,30.3212492 78.3306173,29.2648424 78.3306173,27.5960542 C78.3306173,25.4205966 80.2235452,24.0055881 82.9240674,24.0055881 C85.5824807,24.0055881 87.3480069,25.2093508 87.7728585,27.0470288 L84.667912,27.6599441 C84.5621919,27.0052068 83.923929,26.4138254 82.8819585,26.4138254 C81.9673898,26.4138254 81.6694024,26.8573169 81.6694024,27.2374525 C81.6694024,27.5328763 81.7973417,27.8288339 82.4775342,27.9763678 L84.9870434,28.4835712 C87.0073731,28.9062407 87.9436234,30.1100034 87.9436234,31.6730797 C87.9436234,34.0174271 85.9016122,35.2427237 83.0948323,35.2427237 C80.5846063,35.2427237 78.4370542,34.3343847 78.0752763,32.1589271 L81.3929174,31.4826559 Z" id="Fill-28"></path>
                        <polygon id="Fill-10" points="18.5418158 16.7943839 15.1387027 16.7943839 15.1387027 9.25413814 11.1408691 16.7943839 9.52442622 16.7943839 5.50491101 9.2117822 5.50491101 16.7943839 2.10251467 16.7943839 2.10251467 2.64234153 5.54755744 2.64234153 10.3325581 11.6193076 15.1177379 2.64234153 18.5418158 2.64234153"></polygon>
                        <path d="M23.5228287,10.2889754 L27.9252658,10.2889754 C27.6061344,9.14839068 26.7558937,8.62018729 25.7775345,8.62018729 C24.8201402,8.62018729 23.8419602,9.21174661 23.5228287,10.2889754 L23.5228287,10.2889754 Z M31.2855533,12.3587212 L23.4592175,12.3587212 C23.7355233,13.6258398 24.6074456,14.4076449 25.7558529,14.4076449 C26.5430199,14.4076449 27.4577678,14.2172212 28.0315235,13.1823483 L31.0517147,13.7952636 C30.137146,16.0340771 28.2015717,17.1113059 25.7558529,17.1113059 C22.672588,17.1113059 20.1204324,14.8511364 20.1204324,11.4927381 C20.1204324,8.15533983 22.672588,5.87417034 25.7775345,5.87417034 C28.7971881,5.87417034 31.2217629,8.02880593 31.2855533,11.4927381 L31.2855533,12.3587212 Z" id="Fill-12"></path>
                        <path d="M40.8749067,11.4927737 C40.8749067,9.86634153 39.6419233,8.74675678 38.2591398,8.74675678 C36.7706362,8.74675678 35.6860194,9.86634153 35.6860194,11.4927737 C35.6860194,13.140028 36.7706362,14.2387907 38.2591398,14.2387907 C39.6419233,14.2387907 40.8749067,13.140028 40.8749067,11.4927737 L40.8749067,11.4927737 Z M44.2780198,16.7943839 L40.8749067,16.7943839 L40.8749067,15.9492229 C40.0456309,16.688672 38.9400492,17.1113415 37.5572657,17.1113415 C34.7293418,17.1113415 32.3472343,14.851172 32.3472343,11.4927737 C32.3472343,8.15537542 34.7293418,5.87420593 37.5572657,5.87420593 C38.9400492,5.87420593 40.0456309,6.29687542 40.8749067,7.03632458 L40.8749067,0.895248305 L44.2780198,0.895248305 L44.2780198,16.7943839 Z" id="Fill-14"></path>
                        <path d="M8.63143157,24.7027169 L6.82325896,29.3495898 L10.4600315,29.3495898 L8.63143157,24.7027169 Z M12.6292652,34.9258017 L11.6299412,32.3486746 L5.63292196,32.3486746 L4.6328812,34.9258017 L0.868706986,34.9258017 L6.82325896,20.7737593 L10.417385,20.7737593 L16.3724746,34.9258017 L12.6292652,34.9258017 Z" id="Fill-16"></path>
                        <path d="M28.4279919,28.4203576 L28.4279919,34.9257305 L25.0465604,34.9257305 L25.0465604,29.1382729 C25.0465604,27.8921542 24.3027566,27.0469932 23.2179606,27.0469932 C21.8780027,27.0469932 21.0060804,27.9553322 21.0060804,30.0042559 L21.0060804,34.9257305 L17.603684,34.9257305 L17.603684,24.3225102 L21.0060804,24.3225102 L21.0060804,25.336561 C21.8142122,24.4914 22.9416547,24.0055525 24.281075,24.0055525 C26.7694402,24.0055525 28.4279919,25.7585186 28.4279919,28.4203576" id="Fill-18"></path>
                        <path d="M33.1555095,31.4826559 C33.3045928,32.3909949 34.1338687,32.7287746 35.0484374,32.7287746 C35.9413245,32.7287746 36.4305041,32.348639 36.4305041,31.8843254 C36.4305041,31.5250119 36.1540191,31.2504102 35.3675688,31.1025203 L33.1981559,30.6798508 C31.2206519,30.3212492 30.0932094,29.2648424 30.0932094,27.5960542 C30.0932094,25.4205966 31.9861373,24.0055881 34.6866595,24.0055881 C37.3450728,24.0055881 39.110599,25.2093508 39.5354506,27.0470288 L36.4305041,27.6599441 C36.324784,27.0052068 35.6865211,26.4138254 34.6445507,26.4138254 C33.7299819,26.4138254 33.4319945,26.8573169 33.4319945,27.2374525 C33.4319945,27.5328763 33.5599338,27.8288339 34.2401264,27.9763678 L36.7496356,28.4835712 C38.7699652,28.9062407 39.7062155,30.1100034 39.7062155,31.6730797 C39.7062155,34.0174271 37.6642043,35.2427237 34.8574244,35.2427237 C32.3471985,35.2427237 30.1996463,34.3343847 29.8378684,32.1589271 L33.1555095,31.4826559 Z" id="Fill-20"></path>
                        <polygon id="Fill-22" points="53.2810566 34.9466415 50.3251934 34.9466415 48.4105839 29.2015398 46.4757263 34.9466415 43.519684 34.9466415 40.095606 24.3225992 43.4343911 24.3225992 45.1782357 30.0251669 47.1985653 24.3225992 49.6016377 24.3225992 51.6219673 30.0467008 53.3658119 24.3225992 56.7051345 24.3225992"></polygon>
                        <path d="M60.368337,28.4203576 L64.770595,28.4203576 C64.4516427,27.2797729 63.6012228,26.7515695 62.6230428,26.7515695 C61.6656485,26.7515695 60.6874685,27.3431288 60.368337,28.4203576 L60.368337,28.4203576 Z M68.1310616,30.4901034 L60.3047258,30.4901034 C60.5810316,31.757222 61.4529539,32.5390271 62.6013612,32.5390271 C63.3885282,32.5390271 64.3032761,32.3486034 64.8770318,31.3137305 L67.897223,31.9266458 C66.9826543,34.1654593 65.04708,35.2426881 62.6013612,35.2426881 C59.5180963,35.2426881 56.9659407,32.9825186 56.9659407,29.6241203 C56.9659407,26.286722 59.5180963,24.0055525 62.6230428,24.0055525 C65.6426964,24.0055525 68.0672712,26.1601881 68.1310616,29.6241203 L68.1310616,30.4901034 Z" id="Fill-24"></path>
                        <path d="M77.3746385,24.2592788 L77.2255552,27.6384992 L76.6089739,27.6384992 C74.2270456,27.6384992 72.929555,28.8637958 72.929555,31.6098127 L72.929555,34.9258551 L69.5271587,34.9258551 L69.5271587,24.3224568 L72.929555,24.3224568 L72.929555,26.3500246 C73.6952196,25.0829059 74.8651293,24.1745669 76.6089739,24.1745669 C76.9064238,24.1745669 77.1192976,24.1961008 77.3746385,24.2592788" id="Fill-26"></path>
                    </g>
                </g>
            </g>
        </g>
    </g>
</svg>